<?xml version="1.0" encoding="utf-8" ?><svg xmlns="http://www.w3.org/2000/svg" xmlns:xlink="http://www.w3.org/1999/xlink" width="2048" height="2048" viewBox="0 0 2048 2048"><path fill="#020408" d="M0 0L2048 0L2048 2048L0 2048L0 0ZM1585.52 420.96C1574.03 419.309 1539.36 419.891 1526.29 419.838L1410.64 419.429L1025.77 418.26L900.283 418.192C878.69 418.179 847.237 418.975 826.353 417.186C802.936 434.514 778.591 454.36 755.346 472.355L644.213 557.744C607.223 586.42 562.582 618.362 527.515 648.195C520.187 654.354 513.268 659.982 506.573 666.87C512.746 665.012 518.755 663.251 524.823 661.061C540.175 656.561 560.104 648.969 575.443 643.535L665.57 611.612C737.395 586.788 809.559 562.956 882.041 540.121L947.304 519.926C961.424 515.601 979.971 509.557 994.227 506.883C917.84 543.393 840.861 578.651 763.32 612.643L698.086 641.204C639.531 666.764 641.667 669.617 601.066 718.445C582.455 740.965 563.728 763.389 544.884 785.715L266.884 1111.11C279.754 1106.67 295.237 1099.95 308.093 1094.83C333.359 1085.07 358.558 1075.14 383.689 1065.03L604.68 979.162C632.607 968.214 660.627 957.503 688.737 947.032C703.017 941.645 719.57 934.669 733.87 930.338C723.14 937.544 708.616 945.198 697.189 951.615L634.892 986.259L468.602 1078C448.117 1089.06 427.75 1100.33 407.506 1111.82C396.694 1117.93 383.459 1124.89 373.547 1131.98C409.805 1133.6 450.107 1132.95 486.681 1133L667.939 1133.38L1270.25 1135.3C1263.87 1143.85 1253.32 1155.49 1246.2 1164.03L1206.26 1212.7L1063.06 1386.13L606.001 1385.33C606.625 1368.14 609.195 1346.17 610.947 1328.8L622.825 1220.88C625.052 1201.15 628.058 1178.06 628.697 1158.45C619.689 1166.74 608.971 1179.94 600.799 1189.52L559.165 1238.37L422.513 1399.04L240.766 1612.42L193.168 1668.54C183.915 1679.38 173.366 1690.84 164.83 1701.99C180.106 1697.68 216.371 1682.22 232.904 1675.7L365.051 1623.61C407.734 1606.72 450.018 1591.04 492.758 1574.63C581.464 1540.21 670.867 1507.62 760.913 1476.89C738.068 1491.89 706.617 1506.37 681.679 1518.92C636.118 1542.06 590.332 1564.76 544.329 1587.01C529.944 1594.03 515.262 1600.95 501.271 1608.68C495.883 1611.66 472.03 1621.07 471.483 1626.4C477.564 1629.21 556.903 1628.31 570.945 1628.33L736.951 1628.29L1222.27 1628.12C1241.41 1614.46 1261.53 1597.62 1280.37 1583.07L1398.36 1492.63L1484.54 1426.94C1502.61 1413.11 1523.58 1397.97 1539.76 1382.4C1527.44 1385.17 1505.98 1392.87 1493.15 1397.11C1460.27 1407.95 1427.5 1419.1 1394.83 1430.54C1315.78 1457.98 1236.43 1484.54 1156.79 1510.22C1122.69 1521.07 1088.09 1532.45 1053.62 1541.84C1063.9 1535.52 1077.46 1529.51 1088.58 1524.29C1106.41 1515.88 1124.3 1507.58 1142.23 1499.38C1200.23 1472.69 1258.51 1446.61 1317.06 1421.15L1365.88 1399.91C1375.75 1395.61 1386.19 1391.65 1395.45 1386.14C1414.19 1374.99 1480.78 1289.9 1499.96 1267.3L1673.24 1062.95C1709.03 1020.52 1745.13 976.24 1781.67 934.625C1768.32 938.501 1747.88 947.12 1734.65 952.318L1649.11 986.189L1460.6 1060.79C1415.53 1078.75 1371.43 1097.2 1325.68 1113.74C1333.82 1106.66 1347.23 1099.7 1356.89 1094.21C1370.88 1086.31 1384.82 1078.34 1398.71 1070.29C1476.14 1025.6 1554.21 982.897 1632.52 939.831C1647.06 931.836 1663.26 923.37 1676.98 914.238C1651.33 912.968 1616.53 913.766 1590.21 913.69L1414.25 913.128L784.154 909.98C835.326 844.533 889.171 780.553 940.959 715.559C955.764 696.979 971.055 677.738 986.616 659.822L1443.54 660.477C1436.37 736.697 1428.66 812.866 1420.42 888.977C1438.76 870.776 1463.71 838.9 1481.35 818.206C1520.33 773.012 1559.05 727.604 1597.52 681.982L1747.44 505.646C1793.42 452.804 1838.67 399.324 1883.17 345.223C1845.95 359.247 1811.11 374.316 1774.44 388.776C1663.11 433.129 1551.29 476.259 1439.01 518.16L1359.88 547.342C1339.02 555.1 1317.23 563.556 1295.92 569.807C1306.53 562.699 1321.22 555.79 1332.87 549.899L1389.33 521.341C1454.94 488.293 1520.34 454.832 1585.52 420.96Z"/><path fill="#E8E8E8" fill-opacity="0.015686275" d="M506.573 666.87C513.268 659.982 520.187 654.354 527.515 648.195C528.235 655.838 524.76 655.223 524.823 661.061C518.755 663.251 512.746 665.012 506.573 666.87Z"/></svg>