<svg width="50" height="50" viewBox="0 0 50 50" fill="none" xmlns="http://www.w3.org/2000/svg">
<path d="M38.74 10.27C38.46 10.23 37.62 10.25 37.30 10.25L34.48 10.24L25.05 10.20L21.99 10.20C21.46 10.20 20.69 10.22 20.18 10.17C19.61 10.60 19.02 11.08 18.45 11.52L15.73 13.61C14.82 14.31 13.73 15.09 12.87 15.83C12.69 15.98 12.52 16.12 12.36 16.29C12.51 16.25 12.66 16.20 12.81 16.15C13.19 16.04 13.68 15.85 14.06 15.72L16.26 14.94C18.02 14.33 19.79 13.74 21.56 13.18L23.16 12.68C23.50 12.57 23.96 12.43 24.31 12.36C22.44 13.25 20.56 14.11 18.67 14.94L17.08 15.63C15.65 16.25 15.70 16.32 14.71 17.51C14.26 18.06 13.80 18.60 13.34 19.15L6.52 27.13C6.84 27.02 7.22 26.86 7.53 26.74C8.15 26.50 8.77 26.25 9.38 26.01L14.80 23.90C15.49 23.63 16.18 23.37 16.87 23.11C17.22 22.98 17.63 22.81 17.98 22.71C17.71 22.89 17.36 23.07 17.08 23.23L15.55 24.08L11.47 26.33C10.97 26.60 10.47 26.87 9.97 27.15C9.70 27.30 9.38 27.47 9.14 27.65C10.02 27.69 11.00 27.67 11.89 27.67L16.33 27.68L31.00 27.73C30.84 27.94 30.58 28.22 30.40 28.43L29.42 29.62L25.93 33.86L14.80 33.84C14.82 33.42 14.88 32.88 14.92 32.45L15.21 29.81C15.26 29.33 15.34 28.76 15.35 28.28C15.13 28.48 14.87 28.81 14.67 29.05L13.65 30.24L10.31 34.16L5.87 39.36L4.71 40.72C4.48 40.98 4.22 41.26 4.01 41.53C4.38 41.43 5.27 41.05 5.67 40.89L8.90 39.62C9.94 39.21 10.97 38.83 12.01 38.43C14.16 37.60 16.34 36.81 18.53 36.06C17.97 36.43 17.20 36.78 16.59 37.09C15.48 37.65 14.37 38.21 13.25 38.76C12.90 38.93 12.54 39.10 12.20 39.29C12.07 39.36 11.48 39.59 11.47 39.72C11.62 39.79 13.55 39.77 13.89 39.77L17.94 39.77L29.82 39.76C30.29 39.43 30.78 39.02 31.24 38.67L34.14 36.44L36.25 34.82C36.69 34.48 37.20 34.11 37.59 33.73C37.29 33.80 36.77 33.99 36.45 34.10C35.64 34.36 34.84 34.64 34.03 34.92C32.07 35.60 30.11 36.25 28.14 36.88C27.29 37.15 26.44 37.43 25.59 37.66C25.84 37.50 26.17 37.35 26.44 37.22C26.88 37.01 27.32 36.81 27.76 36.61C29.19 35.96 30.63 35.33 32.07 34.71L33.27 34.19C33.51 34.08 33.76 33.98 33.98 33.85C34.44 33.58 36.07 31.50 36.54 30.94L40.77 25.95C41.64 24.91 42.52 23.83 43.41 22.81C43.09 22.91 42.59 23.12 42.26 23.25L40.17 24.08L35.57 25.89C34.47 26.33 33.40 26.78 32.29 27.18C32.49 27.01 32.82 26.84 33.06 26.71C33.40 26.51 33.74 26.32 34.08 26.12C35.97 25.03 37.87 23.99 39.78 22.94C40.14 22.74 40.53 22.53 40.87 22.31C40.24 22.28 39.39 22.30 38.74 22.30L34.44 22.28L19.15 22.20C20.39 20.62 21.71 19.06 22.96 17.47C23.32 17.02 23.70 16.55 24.08 16.11L35.17 16.13C34.99 18.01 34.80 19.88 34.60 21.73C35.04 21.28 35.65 20.49 36.08 19.99C37.02 18.89 37.96 17.78 38.89 16.67L42.53 12.37C43.65 11.08 44.75 9.77 45.84 8.45C44.93 8.79 44.08 9.16 43.18 9.51C40.48 10.59 37.76 11.65 35.04 12.67L33.10 13.38C32.59 13.57 32.05 13.78 31.54 13.93C31.80 13.75 32.16 13.58 32.44 13.44L33.82 12.74C35.43 11.93 37.03 11.11 38.64 10.30Z" fill="#FAFAFA"/>
</svg>
